<svg xmlns="http://www.w3.org/2000/svg" viewBox="0 0 500 500"><title>sneeze</title><g id="BACKGROUND"><rect width="500" height="500" style="fill:#fff"/></g><g id="OBJECTS"><path d="M59.09,323.34A34.81,34.81,0,0,1,93.8,358.05h0a63.52,63.52,0,0,0,63.33,63.34h240a82.52,82.52,0,0,0,82.27-82.28h0a82.51,82.51,0,0,0-82.27-82.27h0a16.56,16.56,0,0,1-16.51-16.51h0a16.56,16.56,0,0,1,16.51-16.51h43.05a40.25,40.25,0,0,0,40.14-40.14h0a40.25,40.25,0,0,0-40.06-40.13H401.07a34.81,34.81,0,0,1-34.71-34.71h0A63.52,63.52,0,0,0,303,45.5H102.14a82.52,82.52,0,0,0-82.27,82.27h0a82.52,82.52,0,0,0,82.27,82.28h0a16.56,16.56,0,0,1,16.51,16.51h0a16.56,16.56,0,0,1-16.51,16.51h-43C6.57,243.07,6.57,323.34,59.09,323.34Z" transform="translate(0 0)" style="fill:#d4cfe6;fill-rule:evenodd"/><path d="M184.89,267c-3.67-10.27-12.36-28-32.5-48.79-31.86-32.83-52.56-70.59-35.19-85,17-14.18,63.57,34.39,87.19,131.07A105.1,105.1,0,0,1,184.89,267Z" transform="translate(0 0)" style="fill:#c4c2df;fill-rule:evenodd"/><path d="M194.35,261.29a23.87,23.87,0,0,0-7.75-1,.5.5,0,0,1,0-1,26.14,26.14,0,0,1,7.47.84q-.67-2.42-1.36-4.77c-1.67-.48-7-2-9.09-2.46a.5.5,0,1,1,.2-1c1.89.39,6.45,1.69,8.56,2.3q-1.31-4.39-2.66-8.58a115.79,115.79,0,0,0-12.44-2.33.5.5,0,0,1-.44-.56.51.51,0,0,1,.56-.43,118.69,118.69,0,0,1,12,2.21c-.92-2.81-1.86-5.55-2.8-8.22A168.31,168.31,0,0,0,168.77,233a.5.5,0,0,1-.44-.55.51.51,0,0,1,.56-.44,166.39,166.39,0,0,1,17.24,3.2q-1.87-5.25-3.83-10.13c-2.29-.72-11.85-3.54-19.7-3.14a.5.5,0,0,1,0-1c7.31-.36,16,2,19.29,2.95-1.61-4-3.24-7.79-4.89-11.44-3.22-.66-16.21-3.09-23.3-.46a.5.5,0,0,1-.35-.94c6.88-2.55,19-.54,23.13.28q-2.64-5.76-5.33-11A104,104,0,0,0,148,202.2a.5.5,0,0,1-.59-.38.49.49,0,0,1,.39-.59,105,105,0,0,1,22.73-1.87q-1.59-3.06-3.2-5.94a112.69,112.69,0,0,0-26.4,2.22.5.5,0,0,1-.59-.39.51.51,0,0,1,.4-.59,115.79,115.79,0,0,1,26-2.26c-2.55-4.52-5.1-8.69-7.61-12.52-3.05.18-18.5,1.2-27.21,4a.5.5,0,0,1-.62-.33.49.49,0,0,1,.32-.62c8.37-2.65,22.77-3.71,26.87-4-1.48-2.21-2.94-4.32-4.38-6.31A146.12,146.12,0,0,0,128,176.86a.52.52,0,0,1-.62-.35.5.5,0,0,1,.35-.61,147,147,0,0,1,25.76-4.24c-3.38-4.62-6.67-8.64-9.75-12.12-2.52-.07-13.93-.24-23.21,2.28a.5.5,0,0,1-.61-.35.51.51,0,0,1,.35-.62c8.53-2.31,18.8-2.38,22.55-2.32q-1.92-2.13-3.73-4a76.56,76.56,0,0,0-19.46-.22.5.5,0,0,1-.55-.44.5.5,0,0,1,.44-.55,81.41,81.41,0,0,1,18.42,0c-9.77-9.74-16.48-13.34-16.54-13.37a.75.75,0,0,1,.73-1.31,56.38,56.38,0,0,1,7.82,5.49,45.39,45.39,0,0,0-2.9-6,.5.5,0,1,1,.72-.68c.73.76,3.06,6.16,3.86,8,1.94,1.63,4.12,3.59,6.5,5.92l-2.24-10.72a.5.5,0,0,1,.38-.59.49.49,0,0,1,.59.38l2.55,12.2c1.62,1.63,3.32,3.43,5.08,5.4l-2.14-12.57a.5.5,0,0,1,.4-.58.51.51,0,0,1,.58.41l2.41,14.16c2.62,3,5.37,6.39,8.2,10.19L152.56,157a.5.5,0,1,1,1-.1l1.52,14.5Q157,174,159,176.92l-1-11.46a.48.48,0,0,1,.45-.54.49.49,0,0,1,.54.45l1.13,13.27q3.62,5.48,7.29,11.86l-.11-11a.5.5,0,0,1,.49-.51.5.5,0,0,1,.5.5l.14,12.77q1.44,2.57,2.88,5.3l.49-8.23a.5.5,0,1,1,1,.06l-.59,9.88c1.77,3.41,3.54,7,5.28,10.78l.84-9.09a.49.49,0,0,1,.54-.45.51.51,0,0,1,.45.54l-1,10.81q2.28,5,4.5,10.47l1.09-8a.5.5,0,0,1,.56-.43.5.5,0,0,1,.43.56l-1.33,9.71q1.92,4.82,3.78,9.95l1.81-7a.49.49,0,0,1,1,.24l-2.17,8.41q1.34,3.75,2.62,7.69l2.33-5.75a.5.5,0,0,1,.65-.27.49.49,0,0,1,.28.64L191,245c.79,2.43,1.56,4.91,2.33,7.45l1.72-3.66a.5.5,0,1,1,.9.43l-2.2,4.66c.57,1.91,1.12,3.85,1.67,5.81L197.9,257a.5.5,0,0,1,.7,0,.51.51,0,0,1,0,.71l-2.86,3.2q.66,2.42,1.31,4.89l-1.48.25Q195,263.6,194.35,261.29Z" transform="translate(0 0)" style="fill:#afafd5;fill-rule:evenodd"/><path d="M199.27,355.74c-7.68-7.74-21.78-19-44.93-27.89-39.28-15.12-71.71-40.09-63.87-61.66,7.56-20.78,63.24.67,121.57,75.16l-12.72,14.34Z" transform="translate(0 0)" style="fill:#afafd5;fill-rule:evenodd"/><path d="M100.67,272a1.43,1.43,0,0,1,.66-2.79,104.21,104.21,0,0,1,12.07,3.86l-5.6-6a1,1,0,1,1,1.39-1.3l8.32,8.91c3.47,1.42,7.38,3.16,11.66,5.28l-5.44-8.25a1,1,0,1,1,1.59-1.05l7.28,11.05c4.42,2.3,9.15,5,14.1,8.12l-4.45-7.33a1,1,0,0,1,1.63-1l6.5,10.7c5.14,3.41,10.49,7.28,15.94,11.69l-3.47-7.46a1,1,0,0,1,.45-1.27,1,1,0,0,1,1.27.46l5.16,11.09c5.06,4.27,10.2,9,15.31,14.24l-1-4.76a1,1,0,0,1,.73-1.14,1,1,0,0,1,1.13.73l1.69,7.79c3.85,4.07,7.69,8.43,11.47,13.11l-.84-4.8a.95.95,0,0,1,1.87-.33l1.45,8.26q2.75,3.51,5.43,7.24l-1.94,2.2q-2.69-3.75-5.42-7.27c-2.33-.38-7.94-1.18-10.53-.5a1,1,0,0,1-1.17-.67,1,1,0,0,1,.67-1.17c2.3-.6,6.44-.22,9.31.16q-2.18-2.73-4.37-5.33c-2.35-.14-8.13-.32-12.3.92a1,1,0,0,1-.54-1.83,39,39,0,0,1,11.15-1.07q-4.56-5.25-9.18-9.94c-3.39.56-14.13,2.48-18.69,4.75a1,1,0,0,1-1.28-.42,1,1,0,0,1,.43-1.28c4.28-2.13,13.53-3.93,17.9-4.7q-4.95-4.95-9.9-9.28c-3.36.48-14.35,2.25-22.18,6a1,1,0,0,1-1.27-.46.93.93,0,0,1,.45-1.26c7-3.36,16.55-5.17,21.12-5.89-1.64-1.41-3.26-2.76-4.88-4.07a92.29,92.29,0,0,0-26.86,6.53,1,1,0,0,1-.75-1.75,94,94,0,0,1,25.46-6.48A203.92,203.92,0,0,0,145,292.16c-4,1.38-19.76,6.86-27.08,11.19a1,1,0,0,1-1-1.64c6.78-4,20.41-8.92,26-10.85-4.12-2.53-8.07-4.74-11.79-6.67-3.74,1.7-17.58,8-20.85,9.74a1,1,0,0,1-1.29-.4,1,1,0,0,1,.4-1.28c3-1.59,14.58-6.89,19.58-9.17-4.87-2.46-9.31-4.43-13.14-6-3.43,1.83-11.7,6.25-13.68,7.49a1,1,0,1,1-1-1.61c1.76-1.11,8.44-4.7,12.37-6.8A102.43,102.43,0,0,0,100.67,272Z" transform="translate(0 0)" style="fill:#d4cfe6;fill-rule:evenodd"/><path d="M312.67,271.22c3-8.49,11.95-22.59,38-36.57,41.19-22.11,63.63-51.53,32.65-69.1-30.4-17.24-90.39,15.62-101.88,98.28C294,267.35,304.27,269.74,312.67,271.22Z" transform="translate(0 0)" style="fill:#afafd5;fill-rule:evenodd"/><path d="M296.36,263.6a61.27,61.27,0,0,1,11.87,1c.43.08.73-.07.67-.32s-.46-.51-.89-.59a66.75,66.75,0,0,0-11.46-1.09c.28-1.36.57-2.71.88-4,2.47,0,10.46-.1,13.57,0,.4,0,.61-.18.45-.45a1.4,1.4,0,0,0-1-.5c-2.85-.11-9.64-.06-12.78,0q.89-3.69,1.9-7.19c2.44,0,10,.21,18.85,1,.42,0,.66-.14.53-.4a1.25,1.25,0,0,0-1-.53c-8-.7-15-.91-18.14-1q1.05-3.51,2.22-6.82c3.34.05,14.27.28,26.92,1.38.42,0,.65-.14.53-.4a1.29,1.29,0,0,0-1-.53c-11.7-1-21.93-1.31-26.13-1.38,1-2.89,2.16-5.66,3.33-8.33,3.4-.08,17.61-.27,30,2,.43.08.74-.06.69-.31s-.44-.51-.88-.59c-11.52-2.16-24.57-2.19-29.39-2.11q2.21-4.89,4.64-9.26c4.85.19,24.55,1.21,36.32,5.39.43.15.85.1.93-.11s-.2-.51-.63-.66c-11.43-4.05-29.79-5.23-36.11-5.52q2.63-4.62,5.46-8.72a315.54,315.54,0,0,1,36.55,7.43c.43.12.8,0,.82-.21s-.33-.52-.76-.63a319.29,319.29,0,0,0-36.06-7.39q1.69-2.4,3.45-4.64a343.29,343.29,0,0,1,41.88,8.62c.44.12.8,0,.81-.21s-.33-.52-.77-.64a355,355,0,0,0-41.28-8.56,106.37,106.37,0,0,1,8.61-9.56c4.81.92,29.24,5.71,43.6,10.41.43.14.83.08.89-.14s-.24-.52-.67-.66c-13.79-4.51-36.6-9.08-43.07-10.33,1.72-1.66,3.45-3.23,5.18-4.69,4.14.81,23.18,4.67,42.09,10.43.44.13.82.05.87-.17s-.28-.52-.71-.65c-17.83-5.43-35.74-9.17-41.41-10.31a106.75,106.75,0,0,1,12.07-8.66c3.92.56,21.73,3.25,36.9,7.88.44.13.82.05.87-.17s-.28-.52-.71-.65c-14-4.25-30.05-6.88-35.9-7.76q2.44-1.47,4.8-2.71a221.67,221.67,0,0,1,30.38,4.66c.44.1.77,0,.74-.27s-.4-.51-.83-.61a234.42,234.42,0,0,0-28.79-4.56c12.7-6.48,22.26-8.1,22.34-8.12.51-.09.59-.48.18-.86a2.19,2.19,0,0,0-1.66-.52,70.37,70.37,0,0,0-10.79,3.08c1-1.85,2.36-4.41,3-4.74.25-.14.15-.43-.21-.65a1.28,1.28,0,0,0-1.09-.16c-.94.52-3.17,4.88-3.92,6.39-2.61,1-5.51,2.26-8.61,3.8l.68-9.26c0-.23-.32-.52-.76-.63s-.8,0-.82.2l-.77,10.54c-2.1,1.09-4.29,2.31-6.52,3.68l0-11c0-.24-.35-.52-.79-.63s-.79,0-.79.23l-.05,12.36a107.93,107.93,0,0,0-10.15,7.29l-1.26-11.38c0-.25-.4-.52-.83-.62s-.77,0-.75.27l1.43,12.9c-1.54,1.3-3.08,2.66-4.62,4.11L328,184.91c0-.24-.42-.52-.85-.61s-.76,0-.73.28l1.72,11.87a111,111,0,0,0-8.28,9.05l-2.7-10a1.18,1.18,0,0,0-.91-.59c-.43-.07-.72.08-.66.33l3.16,11.66c-1.06,1.33-2.09,2.71-3.11,4.13l-2.94-7.65a1.19,1.19,0,0,0-.94-.56c-.43-.06-.69.11-.59.36l3.51,9.19q-2.81,4-5.41,8.57l-3.7-8.54a1.28,1.28,0,0,0-1-.55c-.42,0-.67.13-.56.39l4.4,10.15c-1.49,2.68-2.92,5.51-4.27,8.46l-3.82-7.58a1.33,1.33,0,0,0-1-.54c-.41,0-.65.15-.52.41l4.64,9.23q-1.73,3.93-3.29,8.17l-4.67-6.85a1.39,1.39,0,0,0-1-.48c-.4,0-.58.2-.4.47l5.61,8.23q-1.1,3.11-2.08,6.39l-5.16-5.84a1.48,1.48,0,0,0-1.09-.42c-.37,0-.49.27-.26.53l6.15,7q-.88,3-1.68,6.24L291.91,252a1.47,1.47,0,0,0-1.1-.38c-.36,0-.45.29-.2.55l4.67,4.82c-.38,1.6-.74,3.24-1.08,4.9l-4.52-3.1a1.3,1.3,0,0,0-1.11-.21c-.27.11-.22.4.12.63l5.32,3.65c-.27,1.36-.53,2.75-.77,4.15l2.38.59C295.85,266.23,296.1,264.91,296.36,263.6Z" transform="translate(0 0)" style="fill:#d4cfe6;fill-rule:evenodd"/><path d="M316.14,416.62q.27-6.71,1-13t2-12.19c3-14.58,8-26.87,14.57-37.12A87.48,87.48,0,0,1,359.79,328a99.48,99.48,0,0,1,30.62-13,130.55,130.55,0,0,1,36.25-3.42q6.22.26,12.46,1c4.2.52,8.38,1.21,12.5,2.05h0a1.74,1.74,0,0,1,1.1.74,1.77,1.77,0,0,1,.25,1.3l0,.11c-.35,1.61-8.06,36-28.58,65.46C403.6,412.1,369.78,437,317.28,418.36a1.78,1.78,0,0,1-.87-.7,1.65,1.65,0,0,1-.27-1ZM451,317.33a181.88,181.88,0,0,0-23.17,8.23c4.45,1.32,14.52,4.4,19,6.4,2.37-7.21,3.7-12.54,4.2-14.63Zm-4.73,16.21h0c-5.14-2.35-18.77-6.36-20.8-6.95-6.17,2.69-13.15,6.05-20.64,10.17l35,13.6c2.65-6.13,4.78-11.86,6.45-16.81Zm-7.11,18.33L402.92,337.8a250.61,250.61,0,0,0-21.87,13.82c7.15,3.1,41.32,18,47,21.7a185.25,185.25,0,0,0,11.12-21.45Zm-12,22.86c-5.69-3.78-43.42-20.14-47.68-22-6,4.34-12.14,9.15-18.21,14.47l53.6,24.09a.78.78,0,0,1,.18.11,128.17,128.17,0,0,0,7.83-10.18c1.5-2.15,2.92-4.32,4.28-6.5Zm-13.22,18-54-24.28c-4.74,4.22-9.44,8.75-14.05,13.62,8.71,4.1,53.49,23.82,53.62,23.88a.83.83,0,0,1,.31.24,102.48,102.48,0,0,0,14.15-13.46Zm-15.57,14.54c-4.74-2.09-46.65-20.57-53.7-23.93-4,4.25-7.86,8.75-11.64,13.51,10.35,6.66,46.13,20.43,46.23,20.47a.77.77,0,0,1,.46.44,80.47,80.47,0,0,0,18.65-10.49Zm-20.63,11.24c-5.73-2.23-36.32-14.23-45.74-20.36q-3.63,4.65-7.12,9.62c4,2.14,22.06,11.52,34.1,14.15a.83.83,0,0,1,.64.68,74.76,74.76,0,0,0,18.12-4.09Zm-21.8,4.37c-12.25-3.37-28.58-11.91-32-13.75q-2.64,3.84-5.17,7.87c13.66,4.73,26,6.45,37.18,5.88ZM318,415.06q2.36-3.69,4.78-7.2c-1.15-4.86-1.48-13.09-1.57-17.69-.12.55-.24,1.1-.35,1.65q-1.19,5.78-1.93,12.05-.63,5.38-.93,11.19ZM322.19,386a.8.8,0,0,1,.63.8s0,12.06,1.26,19.2q3.36-4.75,6.86-9.2A163.09,163.09,0,0,1,328.82,367a111.69,111.69,0,0,0-6.63,19Zm7.88-21.62a.82.82,0,0,1,.47.79A159.22,159.22,0,0,0,332.33,395c3.66-4.57,7.43-8.9,11.25-13-.64-3-4.32-20.66-3.66-33.42q-2.49,3.18-4.74,6.69a97,97,0,0,0-5.11,9.05Zm11.27-17.51a.81.81,0,0,1,.31.71c-.87,11.51,2.27,27.95,3.32,33,4.55-4.78,9.18-9.24,13.84-13.39-5.61-16.5-5.27-29.39-5.07-32.58a84.37,84.37,0,0,0-12.4,12.25Zm13.93-13.45a.81.81,0,0,1,.17.59s-1.39,13.61,4.72,32c6.09-5.35,12.22-10.17,18.26-14.52-2.47-7.84-3.56-26.8-3.7-29.39a92.91,92.91,0,0,0-14,7.43q-2.81,1.83-5.49,3.89Zm21-12a.88.88,0,0,1,.06.28c0,.06,1,20.24,3.48,28.75a255.91,255.91,0,0,1,22.14-14,93.1,93.1,0,0,1,.15-21.88,115,115,0,0,0-11.3,2.19,105.21,105.21,0,0,0-14.53,4.69Zm27.5-7.11a.89.89,0,0,1,0,.23,92.27,92.27,0,0,0-.26,21c7.62-4.22,14.74-7.65,21-10.4a60.11,60.11,0,0,1,1.11-11.83,135,135,0,0,0-21.87,1Zm23.54-.92s0,.08,0,.13a59.76,59.76,0,0,0-1.12,10.92A194.43,194.43,0,0,1,449.44,316q-5.22-1-10.54-1.66Q433.17,313.66,427.34,313.4Z" transform="translate(0 0)" style="fill:#afafd5;fill-rule:evenodd"/><path d="M428.51,422.48c13.5-22.15,17.5-41.82,5.58-53.07-13.24-12.49-43.71,6.43-74.1,53.07Z" transform="translate(0 0)" style="fill:#afafd5;fill-rule:evenodd"/><path d="M378.92,422.48c1.3-1.66,2.58-3.25,3.85-4.8a201.66,201.66,0,0,1,24.2,4.8h4.8a200.1,200.1,0,0,0-28-6c4.78-5.73,9.38-10.7,13.68-15,3.29.11,18.15.82,30,4.85a.64.64,0,0,0,.82-.4.65.65,0,0,0-.4-.83c-10.91-3.71-24.28-4.64-29.17-4.87,1.79-1.74,3.52-3.35,5.18-4.86a100.54,100.54,0,0,1,25.35,1.31.65.65,0,0,0,.22-1.29,106,106,0,0,0-24-1.45C419,382.12,428,378,428.1,377.94a1,1,0,0,0-.84-1.76,75,75,0,0,0-10.62,6.5c1.48-2.9,3.6-6.91,4.26-7.52a.65.65,0,0,0,0-.92.64.64,0,0,0-.91,0c-1,.93-4.49,7.77-5.67,10.13-2.67,2-5.67,4.34-9,7.18l3.79-13.77a.65.65,0,0,0-.45-.8.65.65,0,0,0-.8.45l-4.31,15.67c-2.24,2-4.6,4.19-7.05,6.61l3.81-16.18a.65.65,0,0,0-.48-.78.64.64,0,0,0-.78.48l-4.3,18.23c-3.66,3.7-7.51,7.87-11.5,12.59l2.8-16.54a.65.65,0,0,0-1.29-.22L381.67,416c-1.71,2.06-3.43,4.22-5.18,6.48Zm-2.7,0h-1.31l2.17-14.62a.65.65,0,0,1,1.29.2Z" transform="translate(0 0)" style="fill:#d4cfe6;fill-rule:evenodd"/><path d="M234.88,421.39c-.19-.89-.4-1.77-.6-2.63-3.49-14.47-8.93-26.58-15.84-36.6a87.42,87.42,0,0,0-27-25.43,99.46,99.46,0,0,0-31-12,130.16,130.16,0,0,0-36.35-2.18c-4.14.31-8.29.79-12.42,1.44s-8.33,1.49-12.42,2.48h0a1.72,1.72,0,0,0-1.28,2.08l0,.12c.41,1.59,9.28,35.66,30.8,64.44,2.1,2.81,4.33,5.57,6.67,8.25h2.41c-2.71-3-5.25-6.13-7.64-9.32-1.56-2.09-3.06-4.22-4.49-6.35,5.55-4,42.7-21.61,46.9-23.6,6.17,4.12,12.44,8.72,18.69,13.84l-51.78,25.43h3.76l49.42-24.27q7.32,6.08,14.51,13.13c-3.48,1.78-12.81,6.34-22.67,11.14h3.78c9.16-4.46,17.36-8.48,20.12-9.91q4.73,4.72,9.32,9.91H220c-3.43-3.94-6.94-7.67-10.49-11.21.55-3,3.62-20.8,2.52-33.53,1.73,2.07,3.39,4.24,5,6.53a93.52,93.52,0,0,1,5.42,8.87.83.83,0,0,0-.44.8,158.61,158.61,0,0,1-.6,28.54H223a161.58,161.58,0,0,0,.72-26.75A110.68,110.68,0,0,1,231,413.39a.83.83,0,0,0-.61.82s.12,3.16.1,7.18h1.65c0-1.44,0-2.75,0-3.86.14.54.28,1.09.41,1.64.18.73.35,1.47.52,2.22ZM99.94,349.16a183.78,183.78,0,0,1,23.43,7.43c-4.39,1.48-14.35,4.9-18.73,7.05-2.61-7.12-4.13-12.4-4.7-14.48Zm5.28,16h0c5.05-2.52,18.54-7,20.55-7.65,6.26,2.48,13.35,5.59,21,9.46l-34.52,14.79c-2.86-6-5.18-11.7-7-16.59ZM113,383.28,148.68,368A252.51,252.51,0,0,1,171,381.05c-7,3.34-40.68,19.39-46.2,23.29A185.3,185.3,0,0,1,113,383.28Zm97.57-8.35a.84.84,0,0,0-.28.72c1.26,11.48-1.31,28-2.19,33.11-4.71-4.63-9.49-8.92-14.29-12.91,5-16.69,4.26-29.55,4-32.74a85.66,85.66,0,0,1,12.8,11.82Zm-14.38-13a.84.84,0,0,0-.15.6s1.86,13.56-3.62,32.14c-6.27-5.13-12.56-9.74-18.74-13.89,2.19-7.92,2.63-26.9,2.68-29.49a92,92,0,0,1,14.21,6.95q2.88,1.73,5.62,3.69Zm-21.42-11.25a.93.93,0,0,0-.05.29c0,.06-.32,20.26-2.5,28.85a254.79,254.79,0,0,0-22.61-13.27,93.81,93.81,0,0,0-.89-21.86c3.83.42,7.62,1,11.36,1.8a104.62,104.62,0,0,1,14.69,4.19ZM147,344.55a.81.81,0,0,0,0,.22,93.14,93.14,0,0,1,1,21c-7.75-4-15-7.15-21.36-9.68a59.8,59.8,0,0,0-1.51-11.78,134.33,134.33,0,0,1,21.89.24Zm-23.55-.12a.69.69,0,0,0,0,.13,59.62,59.62,0,0,1,1.48,10.87,194.41,194.41,0,0,0-23.5-7.61c3.45-.79,7-1.47,10.47-2Q117.61,344.89,123.44,344.43Z" transform="translate(0 0)" style="fill:#afafd5;fill-rule:evenodd"/><path d="M161.08,81.79H102.46A13.15,13.15,0,1,1,112.34,60a1.07,1.07,0,0,1-1.6,1.41,11,11,0,1,0-8.28,18.28h58.62a1.06,1.06,0,1,1,0,2.12ZM114.27,67.2a1,1,0,0,1-1-.84,11.23,11.23,0,0,0-.67-2.08,1.07,1.07,0,0,1,.55-1.4,1.06,1.06,0,0,1,1.4.55,12.69,12.69,0,0,1,.8,2.49,1.07,1.07,0,0,1-.82,1.26Z" transform="translate(0 0)" style="fill:#afafd5"/><path d="M73.2,111.81a13.15,13.15,0,0,1,0-26.29h58.62a1.06,1.06,0,0,1,0,2.12H73.2a11,11,0,1,0,8.29,18.29,1.06,1.06,0,1,1,1.59,1.4A13.18,13.18,0,0,1,73.2,111.81Zm11.09-7.29a1.07,1.07,0,0,1-1-1.49A10.93,10.93,0,0,0,84,101a1.06,1.06,0,0,1,2.08.44,13.6,13.6,0,0,1-.79,2.49A1.08,1.08,0,0,1,84.29,104.52Z" transform="translate(0 0)" style="fill:#fff"/><path d="M416.2,285.66H381.82a1.07,1.07,0,1,1,0-2.13H416.2a8.55,8.55,0,1,0-6.43-14.18,1.07,1.07,0,0,1-1.6-1.41,10.68,10.68,0,1,1,8,17.72Zm-9.41-11.61a.76.76,0,0,1-.21,0,1.06,1.06,0,0,1-.83-1.26,10.43,10.43,0,0,1,.64-2,1.07,1.07,0,1,1,2,.84,8.87,8.87,0,0,0-.52,1.61A1.06,1.06,0,0,1,406.79,274.05Z" transform="translate(0 0)" style="fill:#afafd5"/><path d="M439.47,309.54a10.67,10.67,0,0,1-8-3.64,1.06,1.06,0,1,1,1.59-1.4,8.55,8.55,0,1,0,6.43-14.19H392.83a1.06,1.06,0,1,1,0-2.12h46.64a10.68,10.68,0,1,1,0,21.35Zm-8.82-5.8a1.07,1.07,0,0,1-1-.64,10.53,10.53,0,0,1-.64-2,1.06,1.06,0,0,1,.82-1.26,1.07,1.07,0,0,1,1.26.82,8.37,8.37,0,0,0,.51,1.61,1.07,1.07,0,0,1-1,1.49Z" transform="translate(0 0)" style="fill:#fff"/><rect x="107.97" y="108.17" width="8.06" height="8.06" rx="1.88" style="fill:#e4deed"/><rect x="122.89" y="108.17" width="8.07" height="8.06" rx="1.88" style="fill:#afafd5"/><rect x="137.81" y="108.17" width="8.06" height="8.06" rx="1.88" style="fill:#e4deed"/><rect x="152.73" y="108.17" width="8.07" height="8.06" rx="1.88" style="fill:#afafd5"/><rect x="167.65" y="108.17" width="8.06" height="8.06" rx="1.88" style="fill:#afafd5"/><rect x="182.57" y="108.17" width="8.06" height="8.06" rx="1.88" style="fill:#e4deed"/><rect x="138.35" y="91.9" width="8.06" height="8.06" rx="1.88" style="fill:#afafd5"/><rect x="153.27" y="91.9" width="8.06" height="8.06" rx="1.88" style="fill:#e4deed"/><rect x="168.19" y="91.9" width="8.06" height="8.06" rx="1.88" style="fill:#afafd5"/><rect x="152.73" y="125.64" width="8.06" height="8.06" rx="1.88" style="fill:#afafd5"/><rect x="167.65" y="125.64" width="8.06" height="8.06" rx="1.88" style="fill:#e4deed"/><path d="M89.34,161.13a.73.73,0,0,1,.73-.73.73.73,0,0,1,.72.73v3.27a.73.73,0,0,1-.72.73.73.73,0,0,1-.73-.73v-3.27Zm-5,2.65a.71.71,0,0,1,0-1,.72.72,0,0,1,1,0l2.31,2.31a.72.72,0,0,1-1,1l-2.31-2.31Zm-1.63,5.38a.73.73,0,0,1,0-1.45H86a.73.73,0,1,1,0,1.45Zm2.66,5a.72.72,0,0,1-1,0,.71.71,0,0,1,0-1l2.31-2.31a.72.72,0,0,1,1,1l-2.31,2.31Zm5.37,1.63a.73.73,0,0,1-.72.73.73.73,0,0,1-.73-.73v-3.27a.73.73,0,0,1,.73-.72.72.72,0,0,1,.72.72v3.27Zm5-2.65a.72.72,0,1,1-1,1l-2.31-2.31a.72.72,0,0,1,1-1l2.32,2.31Zm1.62-5.38a.73.73,0,1,1,0,1.45H94.1a.73.73,0,0,1,0-1.45Zm-2.65-5a.72.72,0,1,1,1,1l-2.32,2.31a.72.72,0,0,1-1-1Z" transform="translate(0 0)" style="fill:#fff;fill-rule:evenodd"/><path d="M308.76,71.65a.73.73,0,0,1,.73-.73.72.72,0,0,1,.72.73v3.26a.73.73,0,0,1-.72.73.73.73,0,0,1-.73-.73V71.65Zm-4.95,2.65a.72.72,0,0,1,0-1,.74.74,0,0,1,1,0l2.31,2.31a.73.73,0,0,1-1,1l-2.31-2.31Zm-1.63,5.38a.73.73,0,0,1,0-1.46h3.27a.73.73,0,1,1,0,1.46Zm2.66,4.95a.74.74,0,0,1-1,0,.72.72,0,0,1,0-1l2.31-2.31a.73.73,0,0,1,1,1l-2.31,2.31Zm5.37,1.63a.72.72,0,0,1-.72.72.73.73,0,0,1-.73-.72V83a.73.73,0,0,1,.73-.73.73.73,0,0,1,.72.73v3.27Zm5-2.66a.73.73,0,0,1-1,1l-2.31-2.31a.72.72,0,0,1,0-1,.74.74,0,0,1,1,0l2.31,2.31Zm1.62-5.38a.73.73,0,0,1,0,1.46h-3.27a.73.73,0,0,1,0-1.46Zm-2.65-5a.73.73,0,0,1,1,1l-2.31,2.31a.74.74,0,0,1-1,0,.72.72,0,0,1,0-1Z" transform="translate(0 0)" style="fill:#fff;fill-rule:evenodd"/><path d="M424,175.84a.73.73,0,1,1,1.45,0v3.27a.73.73,0,1,1-1.45,0v-3.27ZM419,178.49a.72.72,0,0,1,1-1l2.31,2.31a.72.72,0,1,1-1,1L419,178.49Zm-1.63,5.38a.73.73,0,1,1,0-1.45h3.27a.73.73,0,0,1,0,1.45Zm2.65,4.95a.72.72,0,0,1-1-1l2.31-2.31a.72.72,0,0,1,1,1l-2.31,2.31Zm5.38,1.63a.73.73,0,1,1-1.45,0v-3.27a.73.73,0,0,1,1.45,0v3.27Zm4.95-2.65a.72.72,0,0,1-1,1l-2.32-2.31a.72.72,0,0,1,1-1l2.31,2.31Zm1.63-5.38a.73.73,0,1,1,0,1.45h-3.27a.73.73,0,1,1,0-1.45Zm-2.65-4.95a.72.72,0,0,1,1,1l-2.31,2.31a.72.72,0,1,1-1-1Z" transform="translate(0 0)" style="fill:#fff;fill-rule:evenodd"/><path d="M89.66,306a.73.73,0,0,1,.73-.72.72.72,0,0,1,.72.72v3.27a.73.73,0,0,1-.72.73.73.73,0,0,1-.73-.73V306Zm-5,2.66a.72.72,0,0,1,0-1,.71.71,0,0,1,1,0L88.05,310a.73.73,0,1,1-1,1l-2.31-2.31ZM83.08,314a.73.73,0,0,1-.73-.72.73.73,0,0,1,.73-.73h3.27a.73.73,0,0,1,.73.73.73.73,0,0,1-.73.72Zm2.65,5a.72.72,0,0,1-1-1L87,315.66a.72.72,0,0,1,1,0,.74.74,0,0,1,0,1L85.73,319Zm5.38,1.62a.73.73,0,0,1-.72.73.73.73,0,0,1-.73-.73v-3.27a.73.73,0,0,1,.73-.72.72.72,0,0,1,.72.72v3.27Zm5-2.65a.73.73,0,1,1-1,1l-2.31-2.31a.72.72,0,0,1,0-1,.71.71,0,0,1,1,0L96.07,318Zm1.62-5.38a.73.73,0,0,1,.73.73.73.73,0,0,1-.73.72H94.42a.72.72,0,0,1-.72-.72.73.73,0,0,1,.72-.73ZM95,307.64a.72.72,0,0,1,1,0,.74.74,0,0,1,0,1L93.75,311a.72.72,0,1,1-1-1Z" transform="translate(0 0)" style="fill:#fff;fill-rule:evenodd"/><path d="M53.69,280.17a1,1,0,0,1-1-1v-20.9a1,1,0,0,1,2,0v20.9A1,1,0,0,1,53.69,280.17Z" transform="translate(0 0)" style="fill:#afafd5"/><path d="M53.69,280.17a1,1,0,0,1-.87-.5,1,1,0,0,1,.37-1.36l18.1-10.45a1,1,0,0,1,1.37.36,1,1,0,0,1-.37,1.37L54.19,280A1,1,0,0,1,53.69,280.17Z" transform="translate(0 0)" style="fill:#afafd5"/><path d="M71.79,290.62a1,1,0,0,1-.5-.13L53.19,280a1,1,0,0,1-.37-1.37,1,1,0,0,1,1.37-.36l18.1,10.45a1,1,0,0,1,.37,1.36A1,1,0,0,1,71.79,290.62Z" transform="translate(0 0)" style="fill:#afafd5"/><path d="M53.69,265.14a1,1,0,0,1-.65-.25,1,1,0,0,1-.11-1.41l3.81-4.41a1,1,0,1,1,1.51,1.31l-3.8,4.41A1,1,0,0,1,53.69,265.14Z" transform="translate(0 0)" style="fill:#afafd5"/><path d="M72.44,273.75l-.19,0-5.73-1.09a1,1,0,0,1,.38-2l5.72,1.09a1,1,0,0,1-.18,2Z" transform="translate(0 0)" style="fill:#afafd5"/><path d="M68.63,293.19a1,1,0,0,1-.95-.67L65.77,287a1,1,0,0,1,.61-1.27,1,1,0,0,1,1.28.61l1.91,5.5a1,1,0,0,1-.61,1.28A1,1,0,0,1,68.63,293.19Z" transform="translate(0 0)" style="fill:#afafd5"/><path d="M53.69,271.25A1,1,0,0,1,53,271a1,1,0,0,1-.11-1.41l3.81-4.41a1,1,0,1,1,1.51,1.3l-3.8,4.41A1,1,0,0,1,53.69,271.25Z" transform="translate(0 0)" style="fill:#afafd5"/><path d="M67.14,276.8a.65.65,0,0,1-.19,0l-5.72-1.09a1,1,0,1,1,.37-2l5.73,1.09a1,1,0,0,1-.19,2Z" transform="translate(0 0)" style="fill:#afafd5"/><path d="M63.33,290.14a1,1,0,0,1-.94-.67L60.47,284a1,1,0,0,1,1.89-.65l1.92,5.5a1,1,0,0,1-.62,1.27A1,1,0,0,1,63.33,290.14Z" transform="translate(0 0)" style="fill:#afafd5"/><path d="M53.69,265.14a1,1,0,0,1-.76-.35l-3.8-4.41a1,1,0,1,1,1.51-1.31l3.81,4.41a1,1,0,0,1-.11,1.41A1,1,0,0,1,53.69,265.14Z" transform="translate(0 0)" style="fill:#afafd5"/><path d="M66.71,272.65a1,1,0,0,1-.33,0,1,1,0,0,1-.61-1.28l1.91-5.5a1,1,0,0,1,1.28-.61,1,1,0,0,1,.61,1.27L67.66,272A1,1,0,0,1,66.71,272.65Z" transform="translate(0 0)" style="fill:#afafd5"/><path d="M66.71,287.69a1,1,0,0,1-.19-2l5.73-1.09a1,1,0,1,1,.37,2l-5.72,1.09A.65.65,0,0,1,66.71,287.69Z" transform="translate(0 0)" style="fill:#afafd5"/><path d="M53.69,271.25a1,1,0,0,1-.76-.35l-3.8-4.41a1,1,0,1,1,1.51-1.3l3.81,4.41a1,1,0,0,1-.76,1.65Z" transform="translate(0 0)" style="fill:#afafd5"/><path d="M61.42,275.71a1.26,1.26,0,0,1-.33,0,1,1,0,0,1-.62-1.28l1.92-5.5a1,1,0,0,1,1.27-.61,1,1,0,0,1,.62,1.27L62.36,275A1,1,0,0,1,61.42,275.71Z" transform="translate(0 0)" style="fill:#afafd5"/><path d="M61.41,284.63a1,1,0,0,1-1-.81,1,1,0,0,1,.8-1.17L67,281.56a1,1,0,0,1,.38,2l-5.73,1.09Z" transform="translate(0 0)" style="fill:#afafd5"/><path d="M53.69,301.07a1,1,0,0,1-1-1v-20.9a1,1,0,0,1,2,0v20.9A1,1,0,0,1,53.69,301.07Z" transform="translate(0 0)" style="fill:#afafd5"/><path d="M35.59,290.62a1,1,0,0,1-.5-1.86l18.1-10.45a1,1,0,0,1,1.37.36,1,1,0,0,1-.37,1.37l-18.1,10.45A1,1,0,0,1,35.59,290.62Z" transform="translate(0 0)" style="fill:#afafd5"/><path d="M53.69,280.17a1,1,0,0,1-.5-.13l-18.1-10.45a1,1,0,1,1,1-1.73l18.1,10.45a1,1,0,0,1,.37,1.36A1,1,0,0,1,53.69,280.17Z" transform="translate(0 0)" style="fill:#afafd5"/><path d="M57.5,299.62a1,1,0,0,1-.76-.35l-3.81-4.41a1,1,0,1,1,1.52-1.3l3.8,4.41a1,1,0,0,1-.75,1.65Z" transform="translate(0 0)" style="fill:#afafd5"/><path d="M38.75,293.19a1,1,0,0,1-.33-.05,1,1,0,0,1-.62-1.28l1.92-5.5a1,1,0,0,1,1.89.66l-1.92,5.5A1,1,0,0,1,38.75,293.19Z" transform="translate(0 0)" style="fill:#afafd5"/><path d="M34.94,273.75a1,1,0,0,1-.19-2l5.73-1.09a1,1,0,0,1,1.17.8,1,1,0,0,1-.8,1.17l-5.72,1.09Z" transform="translate(0 0)" style="fill:#afafd5"/><path d="M57.5,293.51a1,1,0,0,1-.76-.35l-3.81-4.41a1,1,0,0,1,1.52-1.31l3.8,4.41a1,1,0,0,1-.1,1.41A1,1,0,0,1,57.5,293.51Z" transform="translate(0 0)" style="fill:#afafd5"/><path d="M44,290.14a.91.91,0,0,1-.32-.06,1,1,0,0,1-.62-1.27l1.92-5.5a1,1,0,0,1,1.89.65L45,289.47A1,1,0,0,1,44,290.14Z" transform="translate(0 0)" style="fill:#afafd5"/><path d="M40.24,276.8a1,1,0,0,1-.19-2l5.72-1.09a1,1,0,1,1,.38,2l-5.72,1.09A.65.65,0,0,1,40.24,276.8Z" transform="translate(0 0)" style="fill:#afafd5"/><path d="M49.88,299.62a1,1,0,0,1-.65-.24,1,1,0,0,1-.1-1.41l3.8-4.41a1,1,0,0,1,1.52,1.3l-3.81,4.41A1,1,0,0,1,49.88,299.62Z" transform="translate(0 0)" style="fill:#afafd5"/><path d="M40.67,287.69a.62.62,0,0,1-.19,0l-5.72-1.09a1,1,0,1,1,.37-2l5.72,1.09a1,1,0,0,1-.18,2Z" transform="translate(0 0)" style="fill:#afafd5"/><path d="M40.67,272.65a1,1,0,0,1-1-.67l-1.92-5.5a1,1,0,0,1,1.89-.66l1.92,5.5A1,1,0,0,1,41,272.6,1,1,0,0,1,40.67,272.65Z" transform="translate(0 0)" style="fill:#afafd5"/><path d="M49.88,293.51a1,1,0,0,1-.65-.25,1,1,0,0,1-.1-1.41l3.8-4.41a1,1,0,0,1,1.52,1.31l-3.81,4.41A1,1,0,0,1,49.88,293.51Z" transform="translate(0 0)" style="fill:#afafd5"/><path d="M46,284.63h-.19l-5.72-1.09a1,1,0,0,1,.38-2l5.72,1.09a1,1,0,0,1-.19,2Z" transform="translate(0 0)" style="fill:#afafd5"/><path d="M46,275.71A1,1,0,0,1,45,275l-1.92-5.5a1,1,0,0,1,1.89-.66l1.92,5.5a1,1,0,0,1-.62,1.28A1.26,1.26,0,0,1,46,275.71Z" transform="translate(0 0)" style="fill:#afafd5"/><path d="M342.93,130.05a1,1,0,0,1-1-1v-20.9a1,1,0,0,1,2,0v20.9A1,1,0,0,1,342.93,130.05Z" transform="translate(0 0)" style="fill:#afafd5"/><path d="M342.93,130.05a1,1,0,0,1-.86-.5,1,1,0,0,1,.36-1.37l18.11-10.45a1,1,0,0,1,1,1.73l-18.11,10.45A.9.9,0,0,1,342.93,130.05Z" transform="translate(0 0)" style="fill:#afafd5"/><path d="M361,140.5a1,1,0,0,1-.5-.13l-18.11-10.46a1,1,0,0,1,1-1.73l18.11,10.45a1,1,0,0,1-.5,1.87Z" transform="translate(0 0)" style="fill:#afafd5"/><path d="M342.93,115a1,1,0,0,1-.75-1.65L346,109a1,1,0,0,1,1.52,1.3l-3.81,4.41A1,1,0,0,1,342.93,115Z" transform="translate(0 0)" style="fill:#afafd5"/><path d="M361.68,123.62l-.19,0-5.72-1.09a1,1,0,1,1,.37-2l5.73,1.09a1,1,0,0,1-.19,2Z" transform="translate(0 0)" style="fill:#afafd5"/><path d="M357.87,143.07a1,1,0,0,1-.94-.67L355,136.9a1,1,0,1,1,1.89-.66l1.92,5.5a1,1,0,0,1-.62,1.27A1,1,0,0,1,357.87,143.07Z" transform="translate(0 0)" style="fill:#afafd5"/><path d="M342.93,121.13a1,1,0,0,1-.65-.25,1,1,0,0,1-.1-1.41l3.8-4.41a1,1,0,0,1,1.52,1.31l-3.81,4.41A1,1,0,0,1,342.93,121.13Z" transform="translate(0 0)" style="fill:#afafd5"/><path d="M356.39,126.68l-.19,0-5.73-1.09a1,1,0,0,1,.38-2l5.72,1.09a1,1,0,0,1-.18,2Z" transform="translate(0 0)" style="fill:#afafd5"/><path d="M352.58,140a1,1,0,0,1-.95-.67l-1.91-5.5a1,1,0,0,1,1.89-.66l1.91,5.5a1,1,0,0,1-.61,1.28A1.26,1.26,0,0,1,352.58,140Z" transform="translate(0 0)" style="fill:#afafd5"/><path d="M342.93,115a1,1,0,0,1-.75-.35l-3.81-4.41a1,1,0,1,1,1.51-1.3l3.81,4.41a1,1,0,0,1-.1,1.41A1,1,0,0,1,342.93,115Z" transform="translate(0 0)" style="fill:#afafd5"/><path d="M356,122.53a1,1,0,0,1-.33-.06,1,1,0,0,1-.62-1.27l1.92-5.5a1,1,0,1,1,1.89.66l-1.92,5.5A1,1,0,0,1,356,122.53Z" transform="translate(0 0)" style="fill:#afafd5"/><path d="M356,137.57a1,1,0,0,1-.19-2l5.72-1.09a1,1,0,0,1,.38,2l-5.73,1.09Z" transform="translate(0 0)" style="fill:#afafd5"/><path d="M342.93,121.13a1,1,0,0,1-.75-.35l-3.81-4.41a1,1,0,1,1,1.51-1.31l3.81,4.41a1,1,0,0,1-.1,1.41A1,1,0,0,1,342.93,121.13Z" transform="translate(0 0)" style="fill:#afafd5"/><path d="M350.66,125.59a1,1,0,0,1-.33-.06,1,1,0,0,1-.61-1.27l1.91-5.5a1,1,0,0,1,1.28-.62,1,1,0,0,1,.61,1.27l-1.91,5.51A1,1,0,0,1,350.66,125.59Z" transform="translate(0 0)" style="fill:#afafd5"/><path d="M350.66,134.51a1,1,0,0,1-.19-2l5.73-1.09a1,1,0,1,1,.37,2l-5.72,1.09Z" transform="translate(0 0)" style="fill:#afafd5"/><path d="M342.93,151a1,1,0,0,1-1-1v-20.9a1,1,0,0,1,2,0V150A1,1,0,0,1,342.93,151Z" transform="translate(0 0)" style="fill:#afafd5"/><path d="M324.83,140.5a1,1,0,0,1-.5-1.87l18.1-10.45a1,1,0,0,1,1.37.37,1,1,0,0,1-.37,1.36l-18.1,10.46A1,1,0,0,1,324.83,140.5Z" transform="translate(0 0)" style="fill:#afafd5"/><path d="M342.93,130.05a.93.93,0,0,1-.5-.14l-18.1-10.45a1,1,0,0,1,1-1.73l18.1,10.45a1,1,0,0,1-.5,1.87Z" transform="translate(0 0)" style="fill:#afafd5"/><path d="M346.74,149.5a1,1,0,0,1-.76-.35l-3.8-4.41a1,1,0,1,1,1.51-1.31l3.81,4.41a1,1,0,0,1-.11,1.41A1,1,0,0,1,346.74,149.5Z" transform="translate(0 0)" style="fill:#afafd5"/><path d="M328,143.07a.87.87,0,0,1-.32-.06,1,1,0,0,1-.62-1.27l1.92-5.5a1,1,0,1,1,1.89.66l-1.92,5.5A1,1,0,0,1,328,143.07Z" transform="translate(0 0)" style="fill:#afafd5"/><path d="M324.19,123.62a1,1,0,0,1-.19-2l5.73-1.09a1,1,0,1,1,.37,2l-5.73,1.09Z" transform="translate(0 0)" style="fill:#afafd5"/><path d="M346.74,143.38A1,1,0,0,1,346,143l-3.8-4.42a1,1,0,1,1,1.51-1.3l3.81,4.41a1,1,0,0,1-.76,1.65Z" transform="translate(0 0)" style="fill:#afafd5"/><path d="M333.29,140a1.26,1.26,0,0,1-.33,0,1,1,0,0,1-.61-1.28l1.91-5.5a1,1,0,0,1,1.89.66l-1.92,5.5A1,1,0,0,1,333.29,140Z" transform="translate(0 0)" style="fill:#afafd5"/><path d="M329.48,126.68a1,1,0,0,1-.18-2L335,123.6a1,1,0,1,1,.37,2l-5.72,1.09Z" transform="translate(0 0)" style="fill:#afafd5"/><path d="M339.13,149.5a1,1,0,0,1-.66-.25,1,1,0,0,1-.1-1.41l3.81-4.41a1,1,0,1,1,1.51,1.31l-3.81,4.41A1,1,0,0,1,339.13,149.5Z" transform="translate(0 0)" style="fill:#afafd5"/><path d="M329.91,137.57l-.18,0L324,136.46a1,1,0,0,1,.37-2l5.73,1.09a1,1,0,0,1-.19,2Z" transform="translate(0 0)" style="fill:#afafd5"/><path d="M329.91,122.53a1,1,0,0,1-.94-.67l-1.92-5.5a1,1,0,1,1,1.89-.66l1.92,5.5a1,1,0,0,1-.62,1.27A1,1,0,0,1,329.91,122.53Z" transform="translate(0 0)" style="fill:#afafd5"/><path d="M339.13,143.38a1,1,0,0,1-.66-.24,1,1,0,0,1-.1-1.41l3.81-4.41a1,1,0,1,1,1.51,1.3L339.88,143A1,1,0,0,1,339.13,143.38Z" transform="translate(0 0)" style="fill:#afafd5"/><path d="M335.21,134.51l-.19,0-5.72-1.09a1,1,0,0,1-.8-1.17,1,1,0,0,1,1.17-.79l5.72,1.09a1,1,0,0,1-.18,2Z" transform="translate(0 0)" style="fill:#afafd5"/><path d="M335.21,125.59a1,1,0,0,1-.95-.67l-1.91-5.51a1,1,0,1,1,1.88-.65l1.92,5.5a1,1,0,0,1-.61,1.27A1,1,0,0,1,335.21,125.59Z" transform="translate(0 0)" style="fill:#afafd5"/><path d="M198.41,383.2l-4.75,6s-7.22,28-7.93,38.17,71.58,11.35,71.58,11.35l74.77-6.41h0c1.21-5.72.51-10.69-1.14-17.4-2.8-11.46-9.6-28.09-12.61-36.53C312.18,365.1,198.41,383.2,198.41,383.2Z" transform="translate(0 0)" style="fill:#111742;fill-rule:evenodd"/><path d="M197.8,370.06,193.43,377s-1.9,8.9-1.78,10.95.24,4.1,3.86,5.19,28.6,8.2,66,6.76,52.37-8.93,58.65-11.59,5.51-7.75,1.19-17.45S197.8,370.06,197.8,370.06Z" transform="translate(0 0)" style="fill:#f3ce63;fill-rule:evenodd"/><path d="M304.64,115a.59.59,0,0,1,.29-.77.58.58,0,0,1,.76.29c.07.15,24.29,52.72-2.14,81.53a.58.58,0,1,1-.85-.78C328.61,167,304.71,115.16,304.64,115Z" transform="translate(0 0)" style="fill:#111742;fill-rule:evenodd"/><path d="M273.72,175.24s.51,5.3,8.21,7.45,33.45,9.47,42.54,13.51c0,0-12.38,28.78-7.33,61.6,0,0,5.3,24,1.27,40.65s-7.58,19.51,1.51,40.72c7.73,18,3.23,29.35,1.65,31.39a5.12,5.12,0,0,1-.46.53c-33.06,13.29-94.62,19.18-127.68,5.88l-.42-.46c-2.31-2.71-12.92-18.29-4.76-37.34,9.09-21.21,5.56-24.06,1.52-40.72S191,257.8,191,257.8c5.05-32.82-7.33-61.6-7.33-61.6,9.09-4,34.84-11.36,42.54-13.51s8.21-7.45,8.21-7.45c5.06,11.61,19.64,12.87,19.64,12.87S268.66,186.85,273.72,175.24Z" transform="translate(0 0)" style="fill:#f3ce63;fill-rule:evenodd"/><path d="M316.07,247.07a103.64,103.64,0,0,0,1.07,10.73s5.3,24,1.27,40.65-7.58,19.51,1.51,40.72a49.18,49.18,0,0,1,4.39,19.6L277.72,304s-8.17-7.76-24.93-7.76H209.48l-18.39-38.88q.36-2.4.6-4.77c7.28,7.93,19.72,18.19,35.3,18.19h59.48s21.6.35,24.27-24.43Z" transform="translate(0 0)" style="fill:#d4a037;fill-rule:evenodd"/><path d="M206.32,209.86s7.56,24.72,1,59S197,334.59,197,344.19s3.27,9.6,7.76,9.6h28.6c4.5,0,7.77,0,7.77-9.6s-3.78-41-10.32-75.29,1-59,1-59Z" transform="translate(0 0)" style="fill:#bd263e;fill-rule:evenodd"/><path d="M207.82,182.25s-8.78,8.79-8.38,14.3,10,34.33,54.65,34.33,54.23-25.34,54.64-30.86-14.56-23.82-14.56-23.82l-40.08,8.7Z" transform="translate(0 0)" style="fill:#cf4a60;fill-rule:evenodd"/><path d="M254.08,131.79h0a19.69,19.69,0,0,1,19.64,19.64v21.32a19.69,19.69,0,0,1-19.64,19.64h0a19.7,19.7,0,0,1-19.64-19.64V151.43A19.7,19.7,0,0,1,254.08,131.79Z" transform="translate(0 0)" style="fill:#c35a5a;fill-rule:evenodd"/><path d="M324.47,196.2c9.09,4,27.84,13.45,29.54,40.39,2,32.28,26.53,62.88,12.29,108.69-5.2,16.71-40.73,13.52-44.86-12.49-2.64-16.64-10.87-73.23-10.87-73.23S309.06,209.57,324.47,196.2Z" transform="translate(0 0)" style="fill:#f3ce63;fill-rule:evenodd"/><path d="M254.09,90.63h0A41.19,41.19,0,0,0,213,131.7v37.36a41.19,41.19,0,0,0,41.07,41.07h0a41.2,41.2,0,0,0,41.07-41.07V131.7A41.2,41.2,0,0,0,254.09,90.63Z" transform="translate(0 0)" style="fill:#de9396;fill-rule:evenodd"/><path d="M213.62,124.69a40.52,40.52,0,0,0-.6,7v37.36c0,1,0,1.95.1,2.92,1.69,1.62,3,1.77,3.7-.37,3.52-11,13.66-17.37,31.84-20.44s32.89-18,32.89-18l4.25-27.51a41.48,41.48,0,0,0-9.5-8.47Z" transform="translate(0 0)" style="fill:#d07174;fill-rule:evenodd"/><path d="M219.61,167.06c-2.59,11.43-.22,24.95,12,34.49a2.31,2.31,0,0,1,.12,3c-1.2,1.69-24,.6-36.56-19.19S192.48,105.5,221,86.19s52-7.08,58.24,12.92c0,0,10.62-1.93,19.79,3.63,8.5,5.14,29.84,48.37,5.09,86.42l-.4-.06a153.47,153.47,0,0,0-9.23-12.43c1.06-4.87.71-9.9.71-14.85-3.83-.71-18.93-8.76-18.93-29,0-.5-2.85-5.45-5.37-.11C261.64,152.14,226.3,137.57,219.61,167.06Z" transform="translate(0 0)" style="fill:#111742;fill-rule:evenodd"/><path d="M190.28,150.43a121.94,121.94,0,0,1,8-32.94c51.05,13,65.6-18.16,69.7-34.68a31.11,31.11,0,0,1,4.37,4.06C271.33,135.46,217.36,147.47,190.28,150.43Z" transform="translate(0 0)" style="fill:#172359;fill-rule:evenodd"/><path d="M277.72,177.82a5.41,5.41,0,1,0,5.3,5.51A5.42,5.42,0,0,0,277.72,177.82Z" transform="translate(0 0)" style="fill:#c35a5a;fill-rule:evenodd"/><path d="M230.66,176.94a5.4,5.4,0,1,0,5.3,5.5A5.4,5.4,0,0,0,230.66,176.94Z" transform="translate(0 0)" style="fill:#c35a5a;fill-rule:evenodd"/><path d="M278.93,162.42c-2.34-2.11-5.59-3.47-8.75-2.66a1.38,1.38,0,1,1-.68-2.67,12.54,12.54,0,0,1,11.31,3.32,1.38,1.38,0,0,1-1.88,2Z" transform="translate(0 0)" style="fill:#111742;fill-rule:evenodd"/><path d="M229.24,162.42c2.34-2.11,5.59-3.47,8.76-2.66a1.38,1.38,0,0,0,.68-2.67,12.53,12.53,0,0,0-11.31,3.32,1.37,1.37,0,0,0,1.87,2Z" transform="translate(0 0)" style="fill:#111742;fill-rule:evenodd"/><path d="M269.36,172.41a.86.86,0,0,1-.87-1.45h0A10.25,10.25,0,0,1,280,169.31a.87.87,0,1,1-.69,1.59,9.33,9.33,0,0,0-5.67-.71,9.32,9.32,0,0,1,6.46,2.94.86.86,0,0,1-1.27,1.17C275.19,170.4,269.38,172.41,269.36,172.41Z" transform="translate(0 0)" style="fill:#111742;fill-rule:evenodd"/><path d="M321.44,333.5a.72.72,0,0,1-.7-.6c-2.61-16.46-10.79-72.67-10.87-73.23,0-.33-.7-25.17,4.19-44.38a.71.71,0,0,1,1.38.35c-4.85,19-4.17,43.66-4.16,43.9.07.49,8.25,56.69,10.86,73.14a.71.71,0,0,1-.59.81Z" transform="translate(0 0)" style="fill:#d4a037"/><path d="M239.17,171h0a.87.87,0,0,1,.23.91.86.86,0,0,1-1.1.54s-5.83-2-9.41,1.89a.87.87,0,0,1-1.28-1.17,9.32,9.32,0,0,1,6.47-2.94,9.33,9.33,0,0,0-5.67.71.87.87,0,0,1-.69-1.59A10.26,10.26,0,0,1,239.17,171Z" transform="translate(0 0)" style="fill:#111742;fill-rule:evenodd"/><path d="M183.7,196.2c-9.09,4-27.84,13.45-29.54,40.39-2,32.28-26.52,62.88-12.28,108.69,5.19,16.71,40.72,13.52,44.85-12.49,2.64-16.64,10.87-73.23,10.87-73.23S199.12,209.57,183.7,196.2Z" transform="translate(0 0)" style="fill:#f3ce63;fill-rule:evenodd"/><path d="M188.15,333.5H188a.71.71,0,0,1-.59-.81c2.61-16.45,10.78-72.65,10.86-73.22,0-.16.68-24.67-4.12-43.66a.71.71,0,1,1,1.37-.35c4.86,19.19,4.17,43.89,4.16,44.14-.08.64-8.26,56.85-10.87,73.31A.72.72,0,0,1,188.15,333.5Z" transform="translate(0 0)" style="fill:#d4a037"/><path d="M281,206.79s2.12-14.07,2.17-15.59-6.26-1.82-7.3,7.47,4.69,7.82,4.69,7.82Z" transform="translate(0 0)" style="fill:#cd6d70;fill-rule:evenodd"/><path d="M254.09,174v62.61c0,6.68,3.75,10.95,7.72,14.81s20.34,27.87,20.34,27.87l18.57-16.7s-21.07-25.67-22.12-27.76-1.15-6.05.11-12.93,3.23-17,2-20S269,183,263.89,173.78a2.36,2.36,0,0,0-1.85-.39c-.92.28-1.65,2.47-1.65,2.47l-2.5-3.91s-2.13-2.29-3.8.26Z" transform="translate(0 0)" style="fill:#de9396;fill-rule:evenodd"/><path d="M274.77,202.09a.41.41,0,0,1-.37-.22L260,176.07a.43.43,0,0,1,.17-.58.42.42,0,0,1,.57.17l14.38,25.8a.43.43,0,0,1-.17.58A.46.46,0,0,1,274.77,202.09Z" transform="translate(0 0)" style="fill:#c35a5a"/><path d="M270.64,210.49a.42.42,0,0,1-.39-.25c-5.39-12.24-13.73-30.78-14.55-31.69a.92.92,0,0,0-1.3.13.42.42,0,0,1-.6,0,.43.43,0,0,1,0-.6,1.75,1.75,0,0,1,2.49-.19c1,.85,12.48,26.78,14.77,32a.42.42,0,0,1-.21.56A.39.39,0,0,1,270.64,210.49Z" transform="translate(0 0)" style="fill:#c35a5a"/><path d="M262.46,218.77l-3.66-15.44c-.28-1.21-.52-2.33-.74-3.36-.66-3.12-1.18-5.59-2.15-5.88-1.15-.35-1.43.17-1.44.19a.42.42,0,0,1-.56.2.41.41,0,0,1-.21-.55c0-.05.55-1.23,2.46-.65,1.45.43,1.93,2.72,2.74,6.51.21,1,.45,2.14.73,3.34,1.25,5.32,3.65,15.45,3.65,15.45Z" transform="translate(0 0)" style="fill:#c35a5a"/><path d="M227.16,206.79S225,192.72,225,191.2s6.26-1.82,7.3,7.47-4.69,7.82-4.69,7.82Z" transform="translate(0 0)" style="fill:#cd6d70;fill-rule:evenodd"/><path d="M254.09,174v62.61c0,6.68-3.76,10.95-7.72,14.81S226,279.27,226,279.27l-18.57-16.7s21.07-25.67,22.12-27.76,1.15-6.05-.11-12.93-3.23-17-2-20,11.69-18.89,16.8-28.07a2.36,2.36,0,0,1,1.85-.39c.92.28,1.65,2.47,1.65,2.47l2.5-3.91s2.13-2.29,3.81.26Z" transform="translate(0 0)" style="fill:#de9396;fill-rule:evenodd"/><path d="M233.41,202.09a.5.5,0,0,1-.21-.05.43.43,0,0,1-.17-.58l14.38-25.8a.43.43,0,0,1,.58-.17.44.44,0,0,1,.16.58l-14.37,25.8A.42.42,0,0,1,233.41,202.09Z" transform="translate(0 0)" style="fill:#c35a5a"/><path d="M237.53,210.49a.33.33,0,0,1-.17,0,.41.41,0,0,1-.22-.56c2.29-5.19,13.76-31.12,14.77-32a1.75,1.75,0,0,1,2.49.19.42.42,0,0,1,0,.6.43.43,0,0,1-.6,0,.91.91,0,0,0-1.31-.12c-.81.89-9.14,19.43-14.54,31.67A.42.42,0,0,1,237.53,210.49Z" transform="translate(0 0)" style="fill:#c35a5a"/><path d="M245.72,218.77l-.83-.19s2.4-10.13,3.65-15.45c.28-1.2.52-2.33.74-3.35.8-3.78,1.28-6.07,2.73-6.5,1.91-.57,2.44.6,2.47.65a.43.43,0,0,1-.78.35s-.31-.53-1.44-.19c-1,.29-1.49,2.75-2.15,5.87-.22,1-.46,2.16-.74,3.37C248.12,208.65,245.72,218.77,245.72,218.77Z" transform="translate(0 0)" style="fill:#c35a5a"/><path d="M254.09,229.22a.42.42,0,0,1-.43-.42V172.21a.43.43,0,0,1,.85,0V228.8A.42.42,0,0,1,254.09,229.22Z" transform="translate(0 0)" style="fill:#c35a5a"/><path d="M280.69,202.27a.41.41,0,0,1-.39-.26c-.63-1.51-3.63-6.35-7.1-11.95-3.34-5.38-7.11-11.47-9.63-16a1.84,1.84,0,0,0-1.4-.29c-.49.15-1.11,1.41-1.37,2.21a.44.44,0,0,1-.35.29.42.42,0,0,1-.41-.2l-2.51-3.91h0a2.46,2.46,0,0,0-1.71-.74,1.92,1.92,0,0,0-1.38,1,.42.42,0,0,1-.35.19h0a.42.42,0,0,1-.36-.19,1.92,1.92,0,0,0-1.38-1,2.62,2.62,0,0,0-1.76.8l-2.45,3.85a.44.44,0,0,1-.41.2.45.45,0,0,1-.36-.29c-.26-.8-.88-2.06-1.36-2.21a1.87,1.87,0,0,0-1.41.29c-2.52,4.51-6.29,10.6-9.63,16-1.65,2.66-3.19,5.15-4.42,7.19a.43.43,0,1,1-.73-.44c1.24-2.05,2.78-4.54,4.43-7.2,3.35-5.41,7.15-11.54,9.66-16a.53.53,0,0,1,.12-.14,2.81,2.81,0,0,1,2.23-.45c.72.23,1.28,1.21,1.61,2l2-3.21a3.28,3.28,0,0,1,2.5-1.13,2.47,2.47,0,0,1,1.67.92,2.43,2.43,0,0,1,1.66-.92,3.39,3.39,0,0,1,2.45,1.07l2.1,3.27c.33-.74.89-1.72,1.61-2a2.8,2.8,0,0,1,2.23.45.53.53,0,0,1,.12.14c2.51,4.5,6.31,10.63,9.66,16,3.49,5.63,6.51,10.5,7.16,12.07a.43.43,0,0,1-.23.56A.45.45,0,0,1,280.69,202.27Z" transform="translate(0 0)" style="fill:#c35a5a"/><path d="M269.29,268.85s-3.33-7-3.42-7.78a7.51,7.51,0,0,1,.3-3.4s12.84-1.14,20.13-12.93a3.79,3.79,0,0,1,3.41.45c1.54,1.18,5.17,5,5.17,5S300,262.07,291,268,269.29,268.85,269.29,268.85Z" transform="translate(0 0)" style="fill:#fff;fill-rule:evenodd"/><path d="M356.91,355.93s-15.78,8-35.16-8.17-17.85-28.91-35.74-46S267.67,278,269.29,268.85c0,0,16.3-1.22,25.59-18.64,0,0,13.78-1,22.26,13.6S331.56,285,344.4,292,382.38,343.73,356.91,355.93Z" transform="translate(0 0)" style="fill:#f3ce63;fill-rule:evenodd"/><path d="M240.3,268.85s3.32-7,3.42-7.78a7.37,7.37,0,0,0-.31-3.4,28.53,28.53,0,0,1-20.13-12.93,3.77,3.77,0,0,0-3.4.45c-1.54,1.18-5.17,5-5.17,5s-5.07,11.86,3.86,17.79S240.3,268.85,240.3,268.85Z" transform="translate(0 0)" style="fill:#fff;fill-rule:evenodd"/><path d="M152.68,355.93s15.78,8,35.16-8.17,17.85-28.91,35.74-46S241.92,278,240.3,268.85c0,0-16.3-1.22-25.59-18.64,0,0-13.79-1-22.26,13.6S178,285,165.19,292,127.21,343.73,152.68,355.93Z" transform="translate(0 0)" style="fill:#f3ce63;fill-rule:evenodd"/><path d="M269.29,128.15a.59.59,0,0,1,.53-.63.58.58,0,0,1,.62.53s1.77,16.63-20.7,20.43c-10.88,1.85-18.42,3.92-23.46,7.63s-7.55,9-8.55,17.41a.58.58,0,0,1-.64.51.59.59,0,0,1-.51-.65c1-8.75,3.75-14.33,9-18.21s12.89-5.95,24-7.83C271,143.72,269.3,128.19,269.29,128.15Z" transform="translate(0 0)" style="fill:#111742;fill-rule:evenodd"/><path d="M278.5,128.94a.58.58,0,0,1,.7-.42.59.59,0,0,1,.42.71c0,.08-7.61,28.43,18.76,34.22a.59.59,0,0,1,.45.69.58.58,0,0,1-.69.44C270.58,158.53,278.48,129,278.5,128.94Z" transform="translate(0 0)" style="fill:#111742;fill-rule:evenodd"/><path d="M242.36,385.11c-18.64,0-36.26-2.28-49.2-7.48a.59.59,0,0,1-.24-.17s-.17-.17-.44-.49a.71.71,0,1,1,1.07-.92l.29.32c32.19,12.86,93.42,7.51,126.87-5.88.06-.07.17-.19.3-.36a.71.71,0,1,1,1.12.86,5.73,5.73,0,0,1-.53.62.68.68,0,0,1-.23.14C301.08,379.91,270.54,385.11,242.36,385.11Z" transform="translate(0 0)" style="fill:#d4a037"/><path d="M346.69,358.58c-6.54,0-15.55-2.05-25.4-10.27-10.34-8.64-14.7-16.16-19.31-24.12-4-6.86-8.1-13.95-16.46-22-18.24-17.46-18.56-24.31-16.93-33.5A.71.71,0,1,1,270,269c-1.55,8.73-1.21,15.25,16.52,32.23,8.51,8.14,12.67,15.33,16.7,22.27,4.56,7.85,8.85,15.26,19,23.74,18.76,15.68,34.23,8.15,34.39,8.07,6.81-3.26,10.36-9.11,10.57-17.4.44-17.19-14.09-40.38-23.1-45.27-12.51-6.8-18.68-13.18-27.54-28.45-8.13-14-21.46-13.26-21.59-13.25a.72.72,0,0,1-.76-.66.71.71,0,0,1,.66-.75c.14,0,14.32-.89,22.92,13.94,8.7,15,14.75,21.28,27,27.92,9.3,5.05,24.29,28.9,23.84,46.56-.23,8.74-4.16,15.18-11.37,18.64A25.68,25.68,0,0,1,346.69,358.58Z" transform="translate(0 0)" style="fill:#d4a037"/><path d="M162.9,358.58a25.54,25.54,0,0,1-10.54-2c-7.2-3.45-11.13-9.89-11.35-18.63-.45-17.66,14.54-41.51,23.84-46.56,12.23-6.64,18.29-12.91,27-27.92,8.59-14.82,22.78-14,22.92-13.94a.71.71,0,1,1-.1,1.41c-.13,0-13.46-.79-21.6,13.25-8.85,15.27-15,21.65-27.54,28.45-9,4.89-23.53,28.08-23.09,45.28.21,8.28,3.76,14.13,10.56,17.39.16.08,15.63,7.61,34.4-8.07,10.14-8.48,14.44-15.89,19-23.74,4-6.94,8.2-14.13,16.71-22.27,17.72-17,18.06-23.51,16.51-32.23a.71.71,0,1,1,1.4-.25c1.63,9.19,1.31,16-16.93,33.5-8.37,8-12.48,15.1-16.46,22-4.62,8-9,15.48-19.31,24.12C178.46,356.53,169.44,358.58,162.9,358.58Z" transform="translate(0 0)" style="fill:#d4a037"/><path d="M283.85,214.41a.69.69,0,0,1-.6-.34.7.7,0,0,1,.24-1c12.87-7.72,17.23-27.21,17.27-27.41a.72.72,0,0,1,.85-.54.71.71,0,0,1,.54.84c-.18.83-4.54,20.29-17.93,28.33A.71.71,0,0,1,283.85,214.41Z" transform="translate(0 0)" style="fill:#bd263e"/><path d="M225,215.84l-.2,0c-17.67-5.34-25.51-21.6-25.58-21.77a.71.71,0,1,1,1.28-.6c.07.16,7.66,15.86,24.71,21a.71.71,0,0,1-.21,1.39Z" transform="translate(0 0)" style="fill:#bd263e"/><path d="M202,350.83a.67.67,0,0,1,1.33,0V361a.67.67,0,0,1-1.33,0Z" transform="translate(0 0)" style="fill:#bd263e;fill-rule:evenodd"/><path d="M202.65,363.7A2.66,2.66,0,1,0,200,361,2.66,2.66,0,0,0,202.65,363.7Z" transform="translate(0 0)" style="fill:#bd263e;fill-rule:evenodd"/><path d="M209.85,350.83a.67.67,0,0,1,1.32,0V361a.67.67,0,0,1-1.32,0Z" transform="translate(0 0)" style="fill:#bd263e;fill-rule:evenodd"/><path d="M210.51,363.7a2.66,2.66,0,1,0-2.66-2.66A2.67,2.67,0,0,0,210.51,363.7Z" transform="translate(0 0)" style="fill:#bd263e;fill-rule:evenodd"/><path d="M217.71,350.83a.67.67,0,0,1,1.33,0V361a.67.67,0,0,1-1.33,0Z" transform="translate(0 0)" style="fill:#bd263e;fill-rule:evenodd"/><path d="M218.38,363.7a2.66,2.66,0,1,0-2.66-2.66A2.66,2.66,0,0,0,218.38,363.7Z" transform="translate(0 0)" style="fill:#bd263e;fill-rule:evenodd"/><path d="M225.58,350.83a.67.67,0,0,1,1.33,0V361a.67.67,0,0,1-1.33,0Z" transform="translate(0 0)" style="fill:#bd263e;fill-rule:evenodd"/><path d="M226.24,363.7a2.66,2.66,0,1,0-2.65-2.66A2.66,2.66,0,0,0,226.24,363.7Z" transform="translate(0 0)" style="fill:#bd263e;fill-rule:evenodd"/><path d="M233.44,350.83a.67.67,0,0,1,1.33,0V361a.67.67,0,0,1-1.33,0Z" transform="translate(0 0)" style="fill:#bd263e;fill-rule:evenodd"/><path d="M234.11,363.7a2.66,2.66,0,1,0-2.66-2.66A2.66,2.66,0,0,0,234.11,363.7Z" transform="translate(0 0)" style="fill:#bd263e;fill-rule:evenodd"/></g></svg>